<?xml version="1.0" standalone="no"?><!DOCTYPE svg PUBLIC "-//W3C//DTD SVG 1.1//EN" "http://www.w3.org/Graphics/SVG/1.1/DTD/svg11.dtd"><svg t="1610505576911" class="icon" viewBox="0 0 1024 1024" version="1.1" xmlns="http://www.w3.org/2000/svg" p-id="5388" xmlns:xlink="http://www.w3.org/1999/xlink" width="48" height="48"><defs><style type="text/css"></style></defs><path d="M942.2 941.9m-17.9 0a17.9 17.9 0 1 0 35.8 0 17.9 17.9 0 1 0-35.8 0Z" p-id="5389"></path><path d="M859.8 865.8c-21.5-7.3-42-10.3-60.8-10.6 10.1-8.5 20-17.3 29.4-26.7 41.1-41.1 73.5-89.1 96-142.4 23.4-55.3 35.2-113.9 35.2-174.4s-11.8-119.2-35.2-174.4c-22.6-53.4-54.9-101.3-96-142.4-41.1-41.1-89.1-73.5-142.4-96-55.3-23.5-114-35.3-174.5-35.3S392.3 75.4 337.1 98.8c-53.4 22.6-101.3 54.9-142.4 96-41.1 41.1-73.5 89.1-96 142.4-23.4 55.3-35.2 113.9-35.2 174.4S75.4 630.8 98.7 686c22.6 53.4 54.9 101.3 96 142.4 41.1 41.1 89.1 73.5 142.4 96 55.3 23.4 113.9 35.2 174.4 35.2s119.2-11.9 174.4-35.2c8.6-3.7 16.9-8 25.2-12.1 1.7-0.4 3.3-1.1 4.8-2 0.6-0.4 59.7-35.2 132.3-10.6 9.4 3.2 19.6-1.9 22.7-11.2 3.3-9.3-1.7-19.5-11.1-22.7zM511.5 137.4c68 0 123.4 55.4 123.4 123.4s-55.4 123.4-123.4 123.4-123.4-55.4-123.4-123.4 55.4-123.4 123.4-123.4z m44.9 374.3c0 24.8-20.1 44.9-44.9 44.9-24.8 0-44.9-20.1-44.9-44.9 0-24.8 20.1-44.9 44.9-44.9 24.8 0 44.9 20.1 44.9 44.9zM271.9 635.1c-68 0-123.4-55.4-123.4-123.4s55.4-123.4 123.4-123.4 123.4 55.4 123.4 123.4S340 635.1 271.9 635.1z m239.6 250.8c-68 0-123.4-55.4-123.4-123.4s55.4-123.4 123.4-123.4c68.1 0 123.4 55.4 123.4 123.4 0 68.1-55.3 123.4-123.4 123.4z m239.6-250.8c-68 0-123.4-55.4-123.4-123.4s55.4-123.4 123.4-123.4 123.4 55.4 123.4 123.4-55.3 123.4-123.4 123.4z" p-id="5390"></path></svg>