<?xml version="1.0" standalone="no"?><!DOCTYPE svg PUBLIC "-//W3C//DTD SVG 1.1//EN" "http://www.w3.org/Graphics/SVG/1.1/DTD/svg11.dtd"><svg t="1610534502335" class="icon" viewBox="0 0 1024 1024" version="1.1" xmlns="http://www.w3.org/2000/svg" p-id="66886" xmlns:xlink="http://www.w3.org/1999/xlink" width="48" height="48"><defs><style type="text/css"></style></defs><path d="M522.517333 960c-191.402667 0-446.272-43.797333-436.928-329.109333 4.842667-147.349333 131.84-285.397333 282.410667-345.109334-60.885333-57.6-61.226667-115.029333-61.226667-115.029333 0-117.077333 215.893333-106.496 215.893334-106.496s215.936-10.581333 215.936 106.496c0 0-0.469333 54.314667-61.994667 116.48 149.653333 61.696 278.336 202.816 283.136 349.781333C969.088 922.325333 713.877333 960 522.517333 960z m104.618667-447.850667a27.946667 27.946667 0 0 0 17.408-35.264c-10.218667-30.762667-40.746667-65.856-94.293333-75.008V370.986667a27.733333 27.733333 0 0 0-27.584-27.818667 27.733333 27.733333 0 0 0-27.605334 27.818667v32c-45.034667 10.773333-79.530667 46.634667-84.266666 92.330666-4.501333 44.096 20.608 101.909333 106.24 119.978667 42.069333 8.917333 65.450667 31.210667 62.528 59.776-2.346667 22.826667-22.634667 45.952-56.896 45.952-41.642667 0-63.466667-21.269333-69.482667-39.445333a27.477333 27.477333 0 1 0-46.869333-9.642667 28.010667 28.010667 0 0 0-5.525334 27.285333c10.218667 30.762667 40.746667 65.834667 94.293334 75.050667v30.848a27.733333 27.733333 0 0 0 27.584 27.84 27.733333 27.733333 0 0 0 27.605333-27.84V773.12c45.034667-10.730667 79.530667-46.656 84.266667-92.309333 4.501333-44.074667-20.608-101.888-106.24-119.957334-42.069333-8.917333-65.450667-31.274667-62.528-59.776 2.346667-22.869333 22.634667-45.994667 56.896-45.994666 41.642667 0 63.466667 21.312 69.482666 39.466666a27.669333 27.669333 0 0 0 34.986667 17.6z" fill="#2c2c2c" p-id="66887"></path></svg>