<?xml version="1.0" standalone="no"?><!DOCTYPE svg PUBLIC "-//W3C//DTD SVG 1.1//EN" "http://www.w3.org/Graphics/SVG/1.1/DTD/svg11.dtd"><svg t="1610507753896" class="icon" viewBox="0 0 1024 1024" version="1.1" xmlns="http://www.w3.org/2000/svg" p-id="18580" xmlns:xlink="http://www.w3.org/1999/xlink" width="48" height="48"><defs><style type="text/css"></style></defs><path d="M701.62963 555.614815h-75.851852c-11.377778 0-20.859259 1.896296-32.237037 3.792592 75.851852 36.02963 130.844444 108.088889 147.911111 191.525926h77.748148c20.859259 0 37.925926-17.066667 37.925926-37.925926 0-85.333333-68.266667-155.496296-155.496296-157.392592z m-170.666667 34.133333l-17.066667-5.688889c-15.17037-3.792593-32.237037-5.688889-49.303703-5.688889h-98.607408c-17.066667 0-34.133333 1.896296-49.303704 5.688889-34.133333 7.585185-66.37037 24.651852-91.022222 49.303704-37.925926 37.925926-58.785185 89.125926-56.888889 142.222222 0 26.548148 22.755556 49.303704 49.303704 49.303704h396.325926c13.274074 0 26.548148-5.688889 34.133333-15.17037 9.481481-9.481481 15.17037-22.755556 15.170371-34.133334v-26.548148c-13.274074-72.059259-64.474074-134.637037-132.740741-159.288889z m132.740741-72.059259c83.437037-3.792593 147.911111-72.059259 147.911111-155.496296 0-83.437037-64.474074-151.703704-147.911111-155.496297h-7.585185c18.962963 37.925926 30.340741 81.540741 28.444444 123.25926 0 66.37037-24.651852 130.844444-68.266667 180.148148 15.17037 5.688889 32.237037 7.585185 47.407408 7.585185z m-250.311111 11.377778c109.985185 0 197.214815-89.125926 197.214814-197.214815 0-34.133333-9.481481-68.266667-28.444444-98.607408-47.407407-83.437037-149.807407-119.466667-238.933333-87.229629s-144.118519 127.051852-127.051852 221.866666c18.962963 92.918519 100.503704 161.185185 197.214815 161.185186z" p-id="18581"></path></svg>