<?xml version="1.0" standalone="no"?><!DOCTYPE svg PUBLIC "-//W3C//DTD SVG 1.1//EN" "http://www.w3.org/Graphics/SVG/1.1/DTD/svg11.dtd"><svg t="1610532861017" class="icon" viewBox="0 0 1024 1024" version="1.1" xmlns="http://www.w3.org/2000/svg" p-id="20663" xmlns:xlink="http://www.w3.org/1999/xlink" width="48" height="48"><defs><style type="text/css"></style></defs><path d="M818.559004 466.149944c18.975667 16.543045 42.618318 27.927715 68.308021 32.30765v419.385222c0 18.972018-15.275649 34.24645-34.151578 34.24645H169.438193c-18.877145 0-34.251315-15.274433-34.251316-34.24645V498.652204c25.884313-3.990716 49.331138-14.890078 68.502631-30.944166v277.35173h614.869496V466.149944z m40.374225-322.36983h14.016767V107.969488c0-18.875929-15.280514-34.151578-34.156443-34.151578H185.590802C166.713656 73.81791 151.339486 89.093559 151.339486 107.969488v35.810626h707.593743z m14.016767 41.063873H150.951483L13.750395 332.159916c0 54.982119 44.661721 99.642623 99.542886 99.642624 11.483191 0 22.377688-1.947314 32.598349-5.543946 0.289482-0.19461 0.778439-0.390436 1.069137-0.490173 3.211061-1.069137 6.3236-2.332884 9.245179-3.796106 0.389219-0.19461 0.874528-0.384354 1.263747-0.678702 3.11254-1.559311 6.228728-3.212277 9.051786-5.059853 0.094872-0.096089 0.289482-0.195826 0.38922-0.290699a102.931528 102.931528 0 0 0 31.329736-31.818693c0-0.099737 0.099737-0.19461 0.099738-0.294347a85.90804 85.90804 0 0 0 5.249598-9.82536 98.343603 98.343603 0 0 0 9.346133-41.844745c0 54.982119 44.660504 99.642623 99.637758 99.642624 54.976037 0 99.642623-44.660504 99.642623-99.642624 0 54.982119 44.660504 99.642623 99.737495 99.642624 54.976037 0 99.637758-44.660504 99.637758-99.642624 0 54.982119 44.565632 99.642623 99.737495 99.642624 54.881165 0 99.541669-44.660504 99.54167-99.642624 0 17.613398 4.670634 34.056706 12.553545 48.457827 0.484092 0.684783 0.778439 1.268612 1.263747 1.948531 1.558094 2.432622 3.016451 4.964981 4.770371 7.297865 0.484092 0.678701 1.069137 1.458357 1.747839 2.33775 1.657832 2.138275 3.406887 4.37507 5.354201 6.418472 0.585046 0.684783 1.069137 1.263747 1.55931 1.848793 2.332884 2.532359 4.865244 4.769155 7.392738 7.007167 0.099737 0.094872 0.19461 0.290698 0.289482 0.290698a98.538213 98.538213 0 0 0 29.776508 17.51731s0.294347 0 0.389219 0.19461c3.701234 1.358619 7.202993 2.432622 11.093972 3.307149 7.587348 1.847576 15.470259 2.916714 23.451691 2.916714 55.072126 0 99.737495-44.660504 99.737495-99.637758L872.949996 184.843987z m0 0" p-id="20664"></path><path d="M618.041635 599.070833H470.717191c2.292746 34.674592 23.202347 52.008239 62.736101 52.008239 24.687463 0 46.47524-6.070608 65.364549-18.214256v47.961572c-20.371992 11.469812-47.085828 17.201069-80.139078 17.201069-35.617233 0-63.3102-10.049161-83.071603-30.153564-19.765052-20.100754-29.648795-48.09415-29.648795-83.981403 0-35.751027 10.524738-64.79045 31.570566-87.119486 21.045828-22.326603 47.487211-33.492337 79.329015-33.492338 31.703144 0 56.491561 9.611289 74.370115 28.837516 17.876122 19.226227 26.813574 45.633553 26.813574 79.226844v27.725807z m-60.912851-40.878993c0-33.458281-13.558218-50.187421-40.674653-50.187421-11.201007 0-21.115158 4.587925-29.747317 13.762558-8.634591 9.174633-14.032579 21.317065-16.189098 36.424863h86.611068z" p-id="20665"></path></svg>