<?xml version="1.0" standalone="no"?><!DOCTYPE svg PUBLIC "-//W3C//DTD SVG 1.1//EN" "http://www.w3.org/Graphics/SVG/1.1/DTD/svg11.dtd"><svg t="1610533016480" class="icon" viewBox="0 0 1024 1024" version="1.1" xmlns="http://www.w3.org/2000/svg" p-id="23868" xmlns:xlink="http://www.w3.org/1999/xlink" width="48" height="48"><defs><style type="text/css"></style></defs><path d="M736.256 256h-64V185.088a23.04 23.04 0 0 0-22.9888-22.9888H375.296a23.04 23.04 0 0 0-23.04 22.9888V256H288.256V185.088a87.04 87.04 0 0 1 87.04-87.04h273.9712a87.04 87.04 0 0 1 87.04 87.04zM845.9264 286.72H175.616a80.3328 80.3328 0 0 0-80.1792 80.0768v448.4608A80.3328 80.3328 0 0 0 175.616 895.488h670.3104a80.3328 80.3328 0 0 0 80.2304-80.2304V366.7968A80.3328 80.3328 0 0 0 845.9264 286.72z m-158.72 327.3216a20.48 20.48 0 0 1-20.48 20.48h-112.7936v113.0496a20.48 20.48 0 0 1-20.48 20.48H487.936a20.48 20.48 0 0 1-20.48-20.48v-113.408H354.6112a20.48 20.48 0 0 1-20.48-20.48V568.32a20.48 20.48 0 0 1 20.48-20.48h113.0496V434.8416a20.48 20.48 0 0 1 20.48-20.48h45.6704a20.48 20.48 0 0 1 20.48 20.48V547.84h112.9984a20.48 20.48 0 0 1 20.48 20.48z" fill="#2c2c2c" p-id="23869"></path></svg>