<?xml version="1.0" standalone="no"?><!DOCTYPE svg PUBLIC "-//W3C//DTD SVG 1.1//EN" "http://www.w3.org/Graphics/SVG/1.1/DTD/svg11.dtd"><svg t="1610533076907" class="icon" viewBox="0 0 1255 1024" version="1.1" xmlns="http://www.w3.org/2000/svg" p-id="25972" xmlns:xlink="http://www.w3.org/1999/xlink" width="58.828125" height="48"><defs><style type="text/css"></style></defs><path d="M1103.079226 499.348645v-121.55871l-442.500129 190.59613a66.064516 66.064516 0 0 1-52.389162-0.033033L35.410581 320.181677a33.032258 33.032258 0 0 1 0.033032-60.647225L607.331097 13.212903A66.064516 66.064516 0 0 1 659.720258 13.212903l572.779355 248.138323a33.032258 33.032258 0 0 1-0.033032 60.647226l-53.314065 22.990451v154.657032l46.046968 46.046968a33.032258 33.032258 0 0 1 0 46.707613l-60.581161 60.548129a33.032258 33.032258 0 0 1-46.707613 0L1057.032258 592.103226a33.032258 33.032258 0 0 1 0-46.740645l46.046968-46.013936z m-114.126452 14.137807v358.796387C988.985806 935.143226 818.671484 1024 608.586323 1024S228.252903 935.143226 228.252903 872.282839V493.039484h6.342194l360.547097 156.176516a99.096774 99.096774 0 0 0 78.616774 0.099097l315.226838-135.828645z" fill="#333333" p-id="25973"></path></svg>