<?xml version="1.0" standalone="no"?><!DOCTYPE svg PUBLIC "-//W3C//DTD SVG 1.1//EN" "http://www.w3.org/Graphics/SVG/1.1/DTD/svg11.dtd"><svg t="1610533480998" class="icon" viewBox="0 0 1024 1024" version="1.1" xmlns="http://www.w3.org/2000/svg" p-id="27627" xmlns:xlink="http://www.w3.org/1999/xlink" width="48" height="48"><defs><style type="text/css"></style></defs><path d="M174.250667 824.888889H170.666667a113.777778 113.777778 0 0 1-113.777778-113.777778v-85.333333a199.139556 199.139556 0 0 1 115.939555-180.963556C192.085333 274.545778 336.583111 142.222222 512 142.222222s319.914667 132.323556 339.171556 302.592A199.139556 199.139556 0 0 1 967.111111 625.777778v85.333333a113.777778 113.777778 0 0 1-113.777778 113.777778h-3.584a113.834667 113.834667 0 0 1-220.387555 0h-234.723556a113.834667 113.834667 0 0 1-220.387555 0zM398.222222 222.776889A284.956444 284.956444 0 0 0 233.244444 426.666667h557.511112c-26.368-129.820444-141.141333-227.555556-278.755556-227.555556-19.484444 0-38.513778 1.962667-56.888889 5.688889V426.666667h-56.888889V222.776889zM739.555556 853.333333a56.888889 56.888889 0 1 0 0-113.777777 56.888889 56.888889 0 0 0 0 113.777777z m-455.111112 0a56.888889 56.888889 0 1 0 0-113.777777 56.888889 56.888889 0 0 0 0 113.777777z" p-id="27628"></path></svg>