<?xml version="1.0" standalone="no"?><!DOCTYPE svg PUBLIC "-//W3C//DTD SVG 1.1//EN" "http://www.w3.org/Graphics/SVG/1.1/DTD/svg11.dtd"><svg t="1610533691985" class="icon" viewBox="0 0 1066 1024" version="1.1" xmlns="http://www.w3.org/2000/svg" p-id="31792" xmlns:xlink="http://www.w3.org/1999/xlink" width="49.96875" height="48"><defs><style type="text/css"></style></defs><path d="M221.056 613.632l368.64-368.64 94.336-94.293a49.664 49.664 0 0 1 70.23 0L894.72 291.072a49.664 49.664 0 0 1 0 70.23L743.979 512 533.333 722.645 402.22 853.76a49.608 49.608 0 0 1-28.288 14.08l-195.584 27.136a24.832 24.832 0 0 1-27.99-27.99l27.136-195.583c1.494-10.71 6.4-20.651 14.08-28.288l29.483-29.483z m84.053-119.168L164.693 353.963a49.664 49.664 0 0 1 0-70.187L305.11 143.36a49.664 49.664 0 0 1 70.23 0l-61.44 61.44a12.373 12.373 0 1 0 17.536 17.536l61.44-61.44 35.114 35.115-61.44 61.44a12.373 12.373 0 0 0 17.579 17.536l61.44-61.44 35.072 35.157-61.44 61.44a12.416 12.416 0 1 0 17.579 17.536l61.44-61.44 17.578 17.579-210.645 210.645z m245.76 245.76L761.6 529.494l17.493 17.535-61.44 61.44a12.373 12.373 0 1 0 17.579 17.536l61.44-61.44 35.072 35.158-61.44 61.44a12.373 12.373 0 0 0 17.579 17.536l61.44-61.44 35.072 35.114-61.44 61.44a12.416 12.416 0 0 0 17.578 17.536l61.44-61.44a49.664 49.664 0 0 1 0 70.23L761.6 880.512a49.664 49.664 0 0 1-70.272 0L550.955 740.139z" p-id="31793"></path></svg>