<?xml version="1.0" standalone="no"?><!DOCTYPE svg PUBLIC "-//W3C//DTD SVG 1.1//EN" "http://www.w3.org/Graphics/SVG/1.1/DTD/svg11.dtd"><svg t="1610533788840" class="icon" viewBox="0 0 1044 1024" version="1.1" xmlns="http://www.w3.org/2000/svg" p-id="37878" xmlns:xlink="http://www.w3.org/1999/xlink" width="48.9375" height="48"><defs><style type="text/css"></style></defs><path d="M80.313725 441.72549c24.094118 0 40.156863 16.062745 40.156863 40.156863v240.941176c0 24.094118-16.062745 40.156863-40.156863 40.156863s-40.156863-16.062745-40.156862-40.156863v-240.941176c0-24.094118 16.062745-40.156863 40.156862-40.156863zM963.764706 441.72549c24.094118 0 40.156863 16.062745 40.156863 40.156863v240.941176c0 24.094118-16.062745 40.156863-40.156863 40.156863s-40.156863-16.062745-40.156863-40.156863v-240.941176c0-24.094118 16.062745-40.156863 40.156863-40.156863zM481.882353 682.666667h80.313725c24.094118 0 40.156863 16.062745 40.156863 40.156862s-16.062745 40.156863-40.156863 40.156863h-80.313725c-24.094118 0-40.156863-16.062745-40.156863-40.156863s16.062745-40.156863 40.156863-40.156862zM401.568627 441.72549c24.094118 0 40.156863 16.062745 40.156863 40.156863v40.156863c0 24.094118-16.062745 40.156863-40.156863 40.156862s-40.156863-16.062745-40.156862-40.156862v-40.156863c0-24.094118 16.062745-40.156863 40.156862-40.156863zM642.509804 441.72549c24.094118 0 40.156863 16.062745 40.156863 40.156863v40.156863c0 24.094118-16.062745 40.156863-40.156863 40.156862s-40.156863-16.062745-40.156863-40.156862v-40.156863c0-24.094118 16.062745-40.156863 40.156863-40.156863z" p-id="37879"></path><path d="M562.196078 240.941176V160.627451v-4.015686c24.094118-8.031373 40.156863-32.12549 40.156863-56.219608 0-32.12549-28.109804-60.235294-60.235294-60.235294h-40.156863c-32.12549 0-60.235294 28.109804-60.235294 60.235294 0 24.094118 16.062745 48.188235 40.156863 56.219608V240.941176H160.627451v722.82353h722.823529V240.941176h-321.254902z m200.784314 602.352942H281.098039V361.411765h481.882353v481.882353z" p-id="37880"></path></svg>