<?xml version="1.0" standalone="no"?><!DOCTYPE svg PUBLIC "-//W3C//DTD SVG 1.1//EN" "http://www.w3.org/Graphics/SVG/1.1/DTD/svg11.dtd"><svg t="1610533856082" class="icon" viewBox="0 0 1024 1024" version="1.1" xmlns="http://www.w3.org/2000/svg" p-id="42016" xmlns:xlink="http://www.w3.org/1999/xlink" width="48" height="48"><defs><style type="text/css"></style></defs><path d="M509.354667 957.098667c-30.464 0-60.928 0.64-90.752 0-39.168-0.597333-58.453333-24.234667-49.706667-62.165334 28.586667-123.690667 57.813333-247.381333 87.637333-371.114666 3.712-15.530667 3.712-25.472-9.941333-37.888-37.930667-33.578667-37.290667-92.032-1.28-128.085334 35.456-35.413333 91.392-35.413333 127.445333-0.597333 36.053333 35.413333 37.333333 93.866667-0.597333 128.042667-13.653333 12.416-13.653333 22.357333-9.941333 37.930666 29.866667 123.050667 58.453333 246.186667 87.637333 369.237334 9.344 39.765333-9.344 64-50.986667 64.64h-89.514666zM975.573333 424.362667c-8.064 175.914667-85.162667 311.466667-238.08 402.816-29.824 17.408-55.893333 4.352-60.288-28.586667-2.474667-20.48 9.344-31.701333 25.472-41.642667 90.794667-53.461333 153.6-129.92 179.029334-231.893333 41.045333-162.218667-4.352-299.008-132.394667-407.765333-22.357333-18.645333-26.112-34.816-13.056-55.338667 13.653333-21.12 34.816-25.472 55.338667-9.941333 103.808 81.450667 163.498667 187.093333 179.626666 318.293333 2.517333 18.005333 3.114667 35.413333 4.352 54.058667z m-932.437333 3.754666c3.754667-157.312 63.402667-279.765333 179.626667-373.632 26.154667-21.12 55.978667-10.538667 64.042666 20.522667 4.992 19.285333-4.949333 31.104-19.242666 42.88-72.106667 59.050667-118.741333 134.272-138.026667 225.706667-32.298667 155.989333 36.053333 318.848 170.965333 404.053333 8.106667 4.949333 16.170667 9.301333 24.234667 14.890667 18.645333 12.416 23.637333 34.816 11.178667 54.698666-11.178667 19.285333-28.586667 24.234667-49.706667 11.818667-131.157333-74.581333-210.133333-185.856-235.605333-334.421333-4.992-24.277333-5.589333-49.109333-7.466667-66.56z" p-id="42017"></path><path d="M771.712 426.24c-1.28-83.925333-31.701333-150.442667-91.392-203.264-18.645333-16.213333-22.4-32.981333-11.178667-51.626667 14.293333-24.832 37.290667-27.946667 60.885334-8.704 135.552 111.914667 159.786667 318.293333 52.864 460.629334-20.48 27.349333-47.872 50.986667-73.984 73.984-20.48 18.048-39.168 15.530667-52.821334-1.877334-16.213333-20.48-14.293333-44.117333 6.826667-60.288 56.576-42.88 92.586667-98.218667 105.045333-168.448 1.877333-14.933333 2.517333-29.866667 3.754667-40.405333z m-603.008 7.466667c2.474667-116.266667 41.642667-201.386667 118.101333-269.184 21.76-19.285333 39.808-19.285333 56.576-1.28 18.048 19.925333 16.170667 40.448-4.949333 59.733333-128.682667 117.461333-121.856 303.36 15.530667 410.282667 14.933333 11.776 22.357333 24.832 18.645333 43.52-5.589333 29.824-32.938667 41.642667-57.813333 24.234666-69.632-48.512-114.986667-114.389333-135.509334-196.437333-6.229333-27.989333-8.106667-56.576-10.581333-70.869333z" p-id="42018"></path><path d="M294.912 421.248c0-55.936 19.242667-103.808 56.576-144.810667 19.242667-21.162667 39.765333-23.637333 57.813333-7.466666 18.645333 16.768 18.645333 38.528-0.64 60.288-44.757333 51.626667-49.109333 115.626667-10.581333 172.8 9.941333 14.293333 13.653333 28.586667 6.229333 45.397333-13.653333 31.061333-42.24 35.413333-62.762666 8.704a212.992 212.992 0 0 1-46.634667-134.912z m428.928-0.597333c-1.28 47.872-14.293333 89.514667-41.045333 126.805333-18.645333 26.112-34.816 31.701333-52.821334 18.645333-21.162667-14.933333-25.514667-41.045333-9.941333-64 25.472-37.333333 32.938667-78.336 19.242667-120.618666-6.186667-19.285333-18.645333-36.693333-31.061334-53.461334-16.170667-21.76-17.408-42.24 0.597334-59.050666 17.408-15.530667 37.973333-14.293333 56.576 5.546666 39.168 41.685333 57.173333 92.032 58.453333 146.133334z" p-id="42019"></path></svg>