<?xml version="1.0" standalone="no"?><!DOCTYPE svg PUBLIC "-//W3C//DTD SVG 1.1//EN" "http://www.w3.org/Graphics/SVG/1.1/DTD/svg11.dtd"><svg t="1610533946683" class="icon" viewBox="0 0 1024 1024" version="1.1" xmlns="http://www.w3.org/2000/svg" p-id="46870" xmlns:xlink="http://www.w3.org/1999/xlink" width="48" height="48"><defs><style type="text/css"></style></defs><path d="M724.733637 735.145354c12.556603-30.596332 25.136049-61.170609 37.669021-91.789785 5.125514-12.532185 11.067077-24.372775 25.290437-28.805907 20.60288-6.422055 38.240886 1.042117 46.70149 21.140873 23.926154 56.738265 47.315102 113.713625 70.817477 170.630696 16.081526 38.944295 32.017329 77.96736 48.84795 119.004554H413.263557c12.870892-31.58016 25.068308-61.796037 37.479975-91.92133 33.203594-80.576985 66.496985-161.096468 99.711606-241.671089 6.680418-16.194166 12.747225-32.657723 19.774228-48.692775 6.591409-15.007114 17.839655-24.809945 35.039705-24.576 16.886548 0.224492 28.570388 9.131717 34.971175 24.598055 24.431065 59.088738 48.714043 118.246006 73.133292 177.334745 2.116529 5.123938 4.835643 9.981637 7.263311 14.963003 1.377674-0.068529 2.732505-0.135483 4.096788-0.21504M60.253735 925.249378c8.236898-20.559557 15.77984-39.807606 23.635496-58.922535 57.679557-140.213169 115.413465-280.414523 173.148947-420.626905 6.132972-14.884234 12.264369-29.789735 18.52101-44.640886 6.568566-15.567163 18.353231-24.205785 35.296492-24.026978 16.876308 0.179594 28.459323 8.841058 34.927065 24.531101 35.924283 87.233772 71.164062 174.760566 108.396701 261.43429 9.725637 22.628037 9.836702 41.463335-0.022843 63.957464-27.551902 62.961034-52.632025 126.99648-79.422228 190.304099-1.92512 4.565465-9.691766 9.433403-14.772381 9.467274-95.516357 0.547446-191.042954 0.413538-286.558523 0.335556-3.636775-0.000788-7.262523-0.974375-13.149736-1.81248M895.251692 247.63392c-8.448-2.159852-12.207655-6.210954-13.932701-15.186708-7.263311-37.914782-43.107249-65.176025-80.900726-60.823237-10.73152 1.242191-17.255975-1.801452-22.369674-8.605538-23.915126-59.200591-133.03808-50.797489-133.03808-50.797489-96.254425-1.420997-114.832148 59.245489-114.832148 59.245489h0.011028c-10.631483 23.804062-11.907545 48.279237-4.196825 73.73824-7.487015 3.7376-13.978388 6.602437-20.1216 10.094277-30.96576 17.547422-46.788923 54.802905-38.105403 89.260504 8.68352 34.333932 38.677268 59.603102 74.276234 59.782696 112.178412 0.536418 224.356825 0.704197 336.524997 0.044898 38.677268-0.246548 71.666609-30.887778 75.438868-66.78843 4.644234-44.293514-18.184665-79.545895-58.75397-89.964702" p-id="46871"></path></svg>