<?xml version="1.0" standalone="no"?><!DOCTYPE svg PUBLIC "-//W3C//DTD SVG 1.1//EN" "http://www.w3.org/Graphics/SVG/1.1/DTD/svg11.dtd"><svg t="1610534015025" class="icon" viewBox="0 0 1025 1024" version="1.1" xmlns="http://www.w3.org/2000/svg" p-id="48881" xmlns:xlink="http://www.w3.org/1999/xlink" width="48.046875" height="48"><defs><style type="text/css"></style></defs><path d="M421.888 84.992c11.264-13.312 9.216-33.792-4.096-45.056-13.312-11.264-33.792-9.216-45.056 4.096l-204.8 244.736c-1.024 2.048-2.048 3.072-3.072 5.12h81.92L421.888 84.992zM777.216 293.888h81.92c-1.024-2.048-2.048-4.096-3.072-5.12l-204.8-245.76c-11.264-13.312-31.744-15.36-45.056-4.096-13.312 11.264-15.36 31.744-4.096 45.056l175.104 209.92zM992.256 357.376H31.744C14.336 357.376 0 371.712 0 389.12c0 17.408 14.336 31.744 31.744 31.744h31.744L162.816 942.08c5.12 27.648 34.816 50.176 66.56 50.176h567.296c31.744 0 60.416-22.528 66.56-50.176l98.304-520.192H993.28c17.408 0 31.744-14.336 31.744-31.744-1.024-17.408-15.36-32.768-32.768-32.768zM378.88 799.744c0 17.408-14.336 31.744-31.744 31.744s-31.744-14.336-31.744-31.744v-256c0-17.408 14.336-31.744 31.744-31.744s31.744 14.336 31.744 31.744v256z m166.912 0c0 17.408-14.336 31.744-31.744 31.744-17.408 0-31.744-14.336-31.744-31.744v-256c0-17.408 14.336-31.744 31.744-31.744 17.408 0 31.744 14.336 31.744 31.744v256z m166.912 0c0 17.408-14.336 31.744-31.744 31.744s-31.744-14.336-31.744-31.744v-256c0-17.408 14.336-31.744 31.744-31.744s31.744 14.336 31.744 31.744v256z" p-id="48882"></path></svg>