<?xml version="1.0" standalone="no"?><!DOCTYPE svg PUBLIC "-//W3C//DTD SVG 1.1//EN" "http://www.w3.org/Graphics/SVG/1.1/DTD/svg11.dtd"><svg t="1610534253942" class="icon" viewBox="0 0 1048 1024" version="1.1" xmlns="http://www.w3.org/2000/svg" p-id="55701" xmlns:xlink="http://www.w3.org/1999/xlink" width="49.125" height="48"><defs><style type="text/css"></style></defs><path d="M564.053 83.042L205.8 298.325 43.837 208.091 414.964 0l149.09 83.042z m77.24 43.032l147.26 82.017-371.175 208.067-134.29-74.8L641.34 126.074h-0.049z m190.146 449.219a229.986 229.986 0 0 0-216.625 255.976l-154.819 88.673 1.244-444.513 371.078-212.554-0.878 312.418zM0 712.85l371.078 212.602 1.317-444.586L1.219 268.312 0 712.85z" p-id="55702"></path><path d="M890.075 626.103c8.29 0 15.507 5.705 17.31 13.702 6.584 29.428 33.793 51.493 66.39 51.493 5.486 0 10.801-0.61 15.872-1.78l5.023-1.366a17.896 17.896 0 0 1 20.748 7.827l30.622 51.443a17.262 17.262 0 0 1-1.73 19.993l-1.951 1.95a63.951 63.951 0 0 0-22.382 48.397h0.049c0 17.578 7.217 33.523 19.017 45.25l3.34 3.097a17.262 17.262 0 0 1 3.657 21.943l-30.622 51.444a17.896 17.896 0 0 1-18.09 8.435l-2.683-0.633a70.437 70.437 0 0 0-20.87-3.121c-31.159 0-57.344 20.09-65.39 47.518l-1.023 3.95a17.7 17.7 0 0 1-17.335 13.726h-60.83a17.7 17.7 0 0 1-17.311-13.726c-6.583-29.428-33.792-51.444-66.39-51.444a71.192 71.192 0 0 0-15.872 1.78l-5.022 1.317a17.896 17.896 0 0 1-20.748-7.778l-30.647-51.444a17.262 17.262 0 0 1 3.657-21.943c12.605-10.971 20.919-26.355 22.187-43.642l0.195-4.73a63.951 63.951 0 0 0-18.944-45.25l-3.414-3.146a17.262 17.262 0 0 1-3.657-21.918l30.623-51.444a17.896 17.896 0 0 1 20.748-7.85c6.583 2.072 13.604 3.145 20.894 3.145 31.11 0 57.344-20.09 65.366-47.519l1.024-3.974a17.7 17.7 0 0 1 17.359-13.727h60.83zM859.6 735.598c-46.055 0-83.334 36.766-83.334 82.164 0 45.348 37.327 82.09 83.359 82.09 46.055 0 83.382-36.742 83.382-82.09 0-45.398-37.327-82.164-83.382-82.164z" p-id="55703"></path></svg>