<?xml version="1.0" standalone="no"?><!DOCTYPE svg PUBLIC "-//W3C//DTD SVG 1.1//EN" "http://www.w3.org/Graphics/SVG/1.1/DTD/svg11.dtd"><svg t="1610534877507" class="icon" viewBox="0 0 1024 1024" version="1.1" xmlns="http://www.w3.org/2000/svg" p-id="67936" xmlns:xlink="http://www.w3.org/1999/xlink" width="48" height="48"><defs><style type="text/css"></style></defs><path d="M374.144 801.792c0 48.128-38.528 87.04-86.144 87.04-47.616 0-86.144-38.912-86.144-87.04 0-48.128 38.528-87.104 86.144-87.104 47.616 0 86.144 38.976 86.144 87.04z m482.496 0c0 48.128-38.592 87.04-86.208 87.04-47.552 0-86.144-38.912-86.144-87.04 0-48.128 38.592-87.104 86.144-87.104 47.616 0 86.208 38.976 86.208 87.04z m76.992-296.896l-76.992-138.688c-15.744-19.2-26.432-34.816-51.712-34.816h-120.64V226.816c0-19.2-15.488-34.816-34.432-34.816H98.432A34.752 34.752 0 0 0 64 226.816v522.688c0 19.2 15.488 34.88 34.432 34.88h68.736c8.448-60.032 59.136-106.56 120.832-106.56 61.696 0 112.384 46.528 120.832 106.56l240.832-0.064c8.448-60.032 59.136-106.496 120.768-106.496 61.696 0 112.384 46.528 120.832 106.56h34.304A34.752 34.752 0 0 0 960 749.44V575.36c0-33.024-26.368-70.4-26.368-70.4z m-214.848 70.4V401.088h84.288c5.568 0 13.248 8.192 13.248 8.192l72.576 136.384c6.4 9.6 13.44 20.928 13.44 29.632H718.72z" p-id="67937"></path></svg>