<?xml version="1.0" standalone="no"?><!DOCTYPE svg PUBLIC "-//W3C//DTD SVG 1.1//EN" "http://www.w3.org/Graphics/SVG/1.1/DTD/svg11.dtd"><svg t="1610534379580" class="icon" viewBox="0 0 1024 1024" version="1.1" xmlns="http://www.w3.org/2000/svg" p-id="62521" xmlns:xlink="http://www.w3.org/1999/xlink" width="48" height="48"><defs><style type="text/css"></style></defs><path d="M193.34 540.69c5.44 5.44 14.27 5.44 19.71 0L511.5 242.25l298.7 298.7c5.3 5.3 13.89 5.3 19.19 0l26.06-26.06c5.3-5.3 5.3-13.89 0-19.19L525.99 166.23c-0.01-0.01-0.02-0.01-0.02-0.02l-0.16-0.16c-7.9-7.9-20.71-7.9-28.62 0l-0.18 0.18L466.24 197 333.25 329.99v-55.71c0-5.24-4.25-9.49-9.49-9.49h-45.03c-5.24 0-9.49 4.25-9.49 9.49v119.71L167.8 495.44c-5.44 5.44-5.44 14.27 0 19.71l25.54 25.54zM554.51 639.55h-87.83c-11.1 0-20.1 9-20.1 20.1v204.23H574.6V659.65c0.01-11.1-8.99-20.1-20.09-20.1z" p-id="62522"></path><path d="M864.06 799.44h-63.69v-221.5L512.59 287.88 224.1 577.94v221.5h-64.16c-17.68 0-32.02 14.33-32.02 32.02 0 17.68 14.33 32.02 32.02 32.02h255.55V653.56c0-25.41 20.6-46.01 46.01-46.01h99.97c25.41 0 46.01 20.6 46.01 46.01v209.91h256.56c17.68 0 32.02-14.33 32.02-32.02 0.01-17.68-14.32-32.01-32-32.01z" p-id="62523"></path></svg>