<?xml version="1.0" standalone="no"?><!DOCTYPE svg PUBLIC "-//W3C//DTD SVG 1.1//EN" "http://www.w3.org/Graphics/SVG/1.1/DTD/svg11.dtd"><svg t="1610601670279" class="icon" viewBox="0 0 1024 1024" version="1.1" xmlns="http://www.w3.org/2000/svg" p-id="23588" xmlns:xlink="http://www.w3.org/1999/xlink" width="48" height="48"><defs><style type="text/css"></style></defs><path d="M764.416 480.256c15.872 13.824 35.328 23.04 56.832 26.624v348.16c0 15.872-12.8 28.16-28.16 28.16H226.304c-15.872 0-28.16-12.8-28.16-28.16V507.392c21.504-3.072 40.96-12.288 56.832-25.6V711.68h509.44V480.256z m33.28-266.752h11.776v-29.696c0-15.872-12.8-28.16-28.16-28.16H239.616c-15.872 0-28.16 12.8-28.16 28.16v29.696h586.24z m11.776 33.792H210.944L97.28 369.664c0 45.568 36.864 82.432 82.432 82.432 9.728 0 18.432-1.536 27.136-4.608 0 0 0.512-0.512 1.024-0.512l7.68-3.072c0.512 0 0.512-0.512 1.024-0.512 2.56-1.536 5.12-2.56 7.68-4.096h0.512c10.24-6.656 19.456-15.872 26.112-26.624 1.536-2.56 3.072-5.12 4.096-8.192 5.12-10.752 7.68-22.528 7.68-34.816 0 45.568 36.864 82.432 82.432 82.432 45.568 0 82.432-36.864 82.432-82.432 0 45.568 36.864 82.432 82.432 82.432 45.568 0 82.432-36.864 82.432-82.432 0 45.568 36.864 82.432 82.432 82.432 45.568 0 82.432-36.864 82.432-82.432 0 14.848 4.096 28.16 10.24 39.936 0.512 0.512 0.512 1.024 1.024 1.536 1.536 2.048 2.56 4.096 4.096 6.144 0.512 0.512 1.024 1.024 1.536 2.048 1.536 1.536 3.072 3.584 4.608 5.12l1.536 1.536c2.048 2.048 4.096 4.096 6.144 5.632 7.168 6.144 15.872 11.264 24.576 14.336h0.512c3.072 1.024 6.144 2.048 9.216 2.56 6.144 1.536 12.8 2.56 19.456 2.56 45.568 0 82.432-36.864 82.432-82.432 0.512 0.512-113.152-121.344-113.152-121.344z m-211.456 343.552H475.648c2.048 28.672 19.456 43.008 52.224 43.008 20.48 0 38.4-5.12 54.272-14.848v39.936c-16.896 9.728-38.912 14.336-66.56 14.336-29.696 0-52.224-8.192-68.608-25.088-16.384-16.896-24.576-39.936-24.576-69.632s8.704-53.76 26.112-72.192c17.408-18.432 39.424-27.648 65.536-27.648 26.112 0 46.592 8.192 61.44 24.064 14.848 15.872 22.016 37.888 22.016 65.536l0.512 22.528z m-50.688-34.304c0-27.648-11.264-41.472-33.792-41.472-9.216 0-17.408 3.584-24.576 11.264-7.168 7.68-11.776 17.92-13.312 30.208h71.68z" fill="#7d449d" p-id="23589"></path></svg>