<?xml version="1.0" standalone="no"?><!DOCTYPE svg PUBLIC "-//W3C//DTD SVG 1.1//EN" "http://www.w3.org/Graphics/SVG/1.1/DTD/svg11.dtd"><svg t="1610600821163" class="icon" viewBox="0 0 1024 1024" version="1.1" xmlns="http://www.w3.org/2000/svg" p-id="3138" xmlns:xlink="http://www.w3.org/1999/xlink" width="48" height="48"><defs><style type="text/css"></style></defs><path d="M84.47179 463.773845c0 169.308469 173.930396 306.628341 388.485093 306.628341s388.485093-137.319872 388.485093-306.628341-173.930396-306.628341-388.485093-306.628341S84.47179 294.465376 84.47179 463.773845z m0 0" fill="#FF4858" p-id="3139"></path><path d="M213.520846 640.015204L164.260839 834.136121l191.931583-77.842975L213.520846 640.015204z m0 0" fill="#FF4858" p-id="3140"></path><path d="M902.674427 505.614444c-6.324742 140.482243-146.198836 299.208932-333.021974 299.208932-30.042523 0-58.382231 1.216296-86.23542-4.135408 48.773489 33.691412 115.183276 42.570377 186.336619 42.570376 151.67217 0 261.99026-82.221642 268.679891-206.64877 2.919112-54.976601-18.487706-103.628459-35.759116-130.99513z m0 0" fill="#FFA3AB" p-id="3141"></path><path d="M886.497684 735.129588L921.405393 866.976125l-135.738687-52.787266 100.830978-79.059271z m0 0" fill="#FFA3AB" p-id="3142"></path><path d="M276.160114 448.691769c0 16.176743 8.635705 31.13719 22.623114 39.286376 13.987409 8.149186 31.258819 8.149186 45.367859 0 13.987409-8.149186 22.623114-23.109633 22.623114-39.286376 0-16.176743-8.635705-31.13719-22.623114-39.286376-13.987409-8.149186-31.258819-8.149186-45.367859 0-13.987409 8.149186-22.623114 23.109633-22.623114 39.286376z m0 0M427.953914 448.691769c0 25.055707 20.312151 45.367858 45.367858 45.367858s45.367858-20.312151 45.367859-45.367858c0-16.176743-8.635705-31.13719-22.623115-39.286376-13.987409-8.149186-31.258819-8.149186-45.367858 0-14.109039 8.149186-22.744744 23.109633-22.744744 39.286376z m0 0M578.896306 448.691769c0 25.055707 20.312151 45.367858 45.367858 45.367858s45.367858-20.312151 45.367859-45.367858c0-25.055707-20.312151-45.367858-45.367859-45.367859s-45.367858 20.312151-45.367858 45.367859z m0 0" fill="#FFFFFF" p-id="3143"></path></svg>