<?xml version="1.0" standalone="no"?><!DOCTYPE svg PUBLIC "-//W3C//DTD SVG 1.1//EN" "http://www.w3.org/Graphics/SVG/1.1/DTD/svg11.dtd"><svg t="1610823217682" class="icon" viewBox="0 0 1024 1024" version="1.1" xmlns="http://www.w3.org/2000/svg" p-id="2920" xmlns:xlink="http://www.w3.org/1999/xlink" width="200" height="200"><defs><style type="text/css"></style></defs><path d="M512 512m-512 0a512 512 0 1 0 1024 0 512 512 0 1 0-1024 0Z" fill="#3192F2" p-id="2921"></path><path d="M298.666667 460.8a59.733333 59.733333 0 1 1 0 119.466667 59.733333 59.733333 0 0 1 0-119.466667z m221.866666 0a59.733333 59.733333 0 1 1 0 119.466667 59.733333 59.733333 0 0 1 0-119.466667z m204.8 0a59.733333 59.733333 0 1 1 0 119.466667 59.733333 59.733333 0 0 1 0-119.466667z" fill="#FFFFFF" p-id="2922"></path></svg>