<?xml version="1.0" standalone="no"?><!DOCTYPE svg PUBLIC "-//W3C//DTD SVG 1.1//EN" "http://www.w3.org/Graphics/SVG/1.1/DTD/svg11.dtd"><svg t="1610604323521" class="icon" viewBox="0 0 1024 1024" version="1.1" xmlns="http://www.w3.org/2000/svg" p-id="109707" xmlns:xlink="http://www.w3.org/1999/xlink" width="48" height="48"><defs><style type="text/css"></style></defs><path d="M207.616 350.2592l-0.128-0.128c-17.2544-17.2288-17.2544-34.4576 0-51.712l182.2208-182.2208c17.2544-17.2544 34.4832-17.2544 51.712 0l0.1024 0.1024c17.2544 17.2544 17.2544 34.4832 0 51.712l-182.2208 182.2464c-17.2288 17.2288-34.4576 17.2288-51.712 0zM580.8128 116.224l0.1024-0.1024c17.2544-17.2288 34.4832-17.2288 51.712 0l182.2464 182.2208c17.2288 17.2288 17.2288 34.4832 0 51.712l-0.128 0.128c-17.2288 17.2288-34.4576 17.2288-51.712 0L580.8128 167.936c-17.2544-17.2288-17.2544-34.4576 0-51.712zM910.1568 374.8352s-20.8128 243.9936-31.5392 394.0608c0 153.6768-143.744 126.08-143.744 126.08h-466.688c-107.6736 0-116.352-86.8352-116.352-86.8352L112.7424 375.3216zM511.36 482.048c-24.5248 0-36.7104 12.1856-36.7104 36.5824v197.4784c0 24.3712 12.1856 36.5568 36.5568 36.5568 24.5504 0 36.736-12.1856 36.736-36.5568v-197.4784c0-24.3968-12.1856-36.5824-36.5824-36.5824z m-197.6832-0.128l-4.1728 0.256c-24.4224 2.1248-35.5072 15.36-33.3824 39.6288l17.2032 196.736c2.1248 24.2944 15.3344 35.3792 39.6288 33.2544 24.448-2.1504 35.5072-15.36 33.3824-39.6288l-17.2032-196.7616c-2.1248-24.2688-15.3344-35.3536-39.6288-33.2288z m399.232 0.2048c-24.2944-2.1248-37.4784 8.96-39.6032 33.2288l-17.2288 196.7616c-2.1248 24.2688 8.96 37.4784 33.2288 39.6032 24.448 2.1504 37.6576-8.9344 39.7824-33.2288l17.2288-196.736c2.1248-24.2944-8.96-37.504-33.2544-39.6288z" fill="#9187FF" p-id="109708"></path><path d="M51.456 338.7392v-0.1536c0-24.3712 12.16-36.5568 36.5568-36.5568H934.4c24.3712 0 36.5568 12.1856 36.5568 36.5568v0.1536c0 24.3968-12.1856 36.5824-36.5568 36.5824H88.0128c-24.3968 0-36.5824-12.1856-36.5824-36.5824z" fill="#9187FF" p-id="109709"></path></svg>