<?xml version="1.0" standalone="no"?><!DOCTYPE svg PUBLIC "-//W3C//DTD SVG 1.1//EN" "http://www.w3.org/Graphics/SVG/1.1/DTD/svg11.dtd"><svg t="1610603519468" class="icon" viewBox="0 0 1024 1024" version="1.1" xmlns="http://www.w3.org/2000/svg" p-id="78041" xmlns:xlink="http://www.w3.org/1999/xlink" width="48" height="48"><defs><style type="text/css"></style></defs><path d="M512 512m-512 0a512 512 0 1 0 1024 0 512 512 0 1 0-1024 0Z" fill="#E8F5FF" p-id="78042"></path><path d="M512 512m-409.6 0a409.6 409.6 0 1 0 819.2 0 409.6 409.6 0 1 0-819.2 0Z" fill="#0E85F8" p-id="78043"></path><path d="M709.973333 409.6l-64.853333 64.853333c-6.826667 6.826667-27.306667 6.826667-27.306667 6.826667s-54.613333-6.826667-61.44-13.653333c-6.826667-6.826667-13.653333-64.853333-13.653333-64.853334s0-17.066667 6.826667-23.893333l64.853333-64.853333s6.826667-6.826667-3.413333-6.826667c-34.133333 0-102.4 0-136.533334 34.133333l-6.826666 6.826667c-37.546667 37.546667-40.96 98.986667-13.653334 139.946667l-129.706666 116.053333c-17.066667 17.066667-34.133333 61.44 0 95.573333 34.133333 34.133333 78.506667 17.066667 95.573333 0 0 0 92.16-105.813333 116.053333-129.706666 44.373333 30.72 102.4 27.306667 139.946667-10.24l6.826667-6.826667c34.133333-34.133333 34.133333-102.4 34.133333-136.533333 0-13.653333-6.826667-6.826667-6.826667-6.826667z m-327.68 269.653333c-20.48 0-37.546667-17.066667-37.546666-37.546666 0-20.48 17.066667-37.546667 37.546666-37.546667s37.546667 17.066667 37.546667 37.546667c0 20.48-17.066667 37.546667-37.546667 37.546666z" fill="#FFFFFF" p-id="78044"></path></svg>