<?xml version="1.0" standalone="no"?><!DOCTYPE svg PUBLIC "-//W3C//DTD SVG 1.1//EN" "http://www.w3.org/Graphics/SVG/1.1/DTD/svg11.dtd"><svg t="1610603696443" class="icon" viewBox="0 0 1024 1024" version="1.1" xmlns="http://www.w3.org/2000/svg" p-id="85356" xmlns:xlink="http://www.w3.org/1999/xlink" width="48" height="48"><defs><style type="text/css"></style></defs><path d="M780.8 719.872h-170.496c-13.824 0-24.576-11.264-24.576-24.576v-27.648h146.944c13.824 0 24.576-11.264 24.576-24.576V250.88c0-13.824-11.264-24.576-24.576-24.576h-121.856V173.568c0-27.136-22.016-49.664-49.664-49.664H461.312c-27.136 0-49.664 22.016-49.664 49.664v52.736H285.696c-13.824 0-24.576 11.264-24.576 24.576v391.68c0 13.824 11.264 24.576 24.576 24.576h151.04v27.648c0 13.824-11.264 24.576-24.576 24.576h-174.08c-13.824 0-24.576 11.264-24.576 24.576v145.408c0 13.824 11.264 24.576 24.576 24.576h543.232c13.824 0 24.576-11.264 24.576-24.576v-145.408c0-12.8-11.264-24.064-25.088-24.064z m-120.832-274.944c0 27.136-22.016 49.664-49.664 49.664-27.136 0-49.664-22.016-49.664-49.664 0-27.136 22.016-49.664 49.664-49.664 27.136 0 49.664 22.016 49.664 49.664z m-198.656-271.36h99.84v52.736H461.312V173.568z m-96.768 271.36c0-27.136 22.016-49.664 49.664-49.664 27.136 0 49.664 22.016 49.664 49.664 0 27.136-22.016 49.664-49.664 49.664-27.648 0-49.664-22.528-49.664-49.664z m467.968-102.4v204.288c0 13.824-11.264 24.576-24.576 24.576-13.824 0-24.576-11.264-24.576-24.576V342.528c0-13.824 11.264-24.576 24.576-24.576 13.312 0 24.576 11.264 24.576 24.576z m73.728 51.2v99.328c0 13.824-11.264 24.576-24.576 24.576-13.824 0-24.576-11.264-24.576-24.576V393.728c0-13.824 11.264-24.576 24.576-24.576 13.312 0 24.576 11.264 24.576 24.576zM213.504 571.904c-13.824 0-24.576-11.264-24.576-24.576v-204.8c0-13.824 11.264-24.576 24.576-24.576 13.824 0 24.576 11.264 24.576 24.576v204.288c0.512 13.824-10.752 25.088-24.576 25.088z m-49.152-178.176v99.328c0 13.824-11.264 24.576-24.576 24.576-13.824 0-24.576-11.264-24.576-24.576V393.728c0-13.824 11.264-24.576 24.576-24.576 13.824 0 24.576 11.264 24.576 24.576z" fill="#f26d5b" p-id="85357"></path></svg>