<?xml version="1.0" standalone="no"?><!DOCTYPE svg PUBLIC "-//W3C//DTD SVG 1.1//EN" "http://www.w3.org/Graphics/SVG/1.1/DTD/svg11.dtd"><svg t="1610604805258" class="icon" viewBox="0 0 1024 1024" version="1.1" xmlns="http://www.w3.org/2000/svg" p-id="122239" xmlns:xlink="http://www.w3.org/1999/xlink" width="48" height="48"><defs><style type="text/css"></style></defs><path d="M655.36 353.28H972.8v76.8h-317.44zM655.36 481.28H972.8v76.8h-317.44zM732.16 609.28H1024v76.8h-291.84z" fill="#4486F7" p-id="122240"></path><path d="M773.12 778.24H716.8c-5.12-56.32-56.32-102.4-117.76-102.4-61.44 0-107.52 46.08-117.76 102.4h-40.96c-25.6 0-46.08-20.48-46.08-46.08V286.72c0-25.6 20.48-46.08 46.08-46.08h337.92c25.6 0 46.08 20.48 46.08 46.08v445.44c-5.12 25.6-25.6 46.08-51.2 46.08zM322.56 327.68H148.48c-46.08 0-148.48 199.68-148.48 256v158.72c0 15.36 15.36 30.72 30.72 30.72h30.72c5.12-56.32 56.32-102.4 117.76-102.4 61.44 0 107.52 46.08 117.76 102.4h30.72c15.36 0 30.72-15.36 30.72-30.72V358.4c-5.12-15.36-20.48-30.72-35.84-30.72z m-61.44 271.36H71.68v-15.36c0-46.08 66.56-184.32 87.04-184.32h102.4v199.68z" fill="#FEBC06" p-id="122241"></path><path d="M174.08 716.8c40.96 0 71.68 30.72 71.68 71.68 0 40.96-30.72 71.68-71.68 71.68-40.96 0-71.68-30.72-71.68-71.68 0-35.84 30.72-71.68 71.68-71.68zM604.16 716.8c40.96 0 76.8 35.84 76.8 76.8s-35.84 76.8-76.8 76.8-76.8-35.84-76.8-76.8 35.84-76.8 76.8-76.8z" fill="#4486F7" p-id="122242"></path></svg>