<?xml version="1.0" standalone="no"?><!DOCTYPE svg PUBLIC "-//W3C//DTD SVG 1.1//EN" "http://www.w3.org/Graphics/SVG/1.1/DTD/svg11.dtd"><svg t="1610604602423" class="icon" viewBox="0 0 1048 1024" version="1.1" xmlns="http://www.w3.org/2000/svg" p-id="119392" xmlns:xlink="http://www.w3.org/1999/xlink" width="49.125" height="48"><defs><style type="text/css"></style></defs><path d="M564.053333 83.041524l-358.253714 215.283809-161.962667-90.233904L414.96381 0l149.089523 83.041524z m77.238857 43.032381l147.260953 82.017524-371.175619 208.067047-134.290286-74.800762 358.253714-215.283809h-0.048762z m190.147048 449.219047a229.985524 229.985524 0 0 0-216.624762 255.975619l-154.819047 88.673524 1.243428-444.513524 371.078095-212.553142-0.877714 312.417523zM0 712.850286l371.078095 212.601904 1.316572-444.586666L1.219048 268.312381 0 712.850286z" fill="#13227a" p-id="119393" data-spm-anchor-id="a313x.7781069.0.i56" class="selected"></path><path d="M890.075429 626.102857c8.289524 0 15.506286 5.705143 17.310476 13.702095 6.582857 29.42781 33.792 51.492571 66.389333 51.492572 5.485714 0 10.800762-0.609524 15.872-1.77981l5.022476-1.365333a17.895619 17.895619 0 0 1 20.748191 7.826286l30.622476 51.443809a17.261714 17.261714 0 0 1-1.731048 19.992381l-1.950476 1.950476a63.951238 63.951238 0 0 0-22.381714 48.396191h0.048762c0 17.578667 7.216762 33.52381 19.017143 45.251047l3.34019 3.096381a17.261714 17.261714 0 0 1 3.657143 21.942858l-30.622476 51.443809a17.895619 17.895619 0 0 1-18.090667 8.43581l-2.681905-0.633905a70.436571 70.436571 0 0 0-20.870095-3.120762c-31.158857 0-57.344 20.089905-65.389714 47.518476l-1.024 3.949714a17.700571 17.700571 0 0 1-17.334857 13.726477H829.19619a17.700571 17.700571 0 0 1-17.310476-13.726477c-6.582857-29.42781-33.792-51.44381-66.389333-51.443809a71.192381 71.192381 0 0 0-15.872 1.779809l-5.022476 1.316572a17.895619 17.895619 0 0 1-20.748191-7.777524l-30.646857-51.44381a17.261714 17.261714 0 0 1 3.657143-21.942857c12.604952-10.971429 20.918857-26.35581 22.186667-43.641904l0.195047-4.729905a63.951238 63.951238 0 0 0-18.944-45.251048l-3.413333-3.145143a17.261714 17.261714 0 0 1-3.657143-21.918476l30.622476-51.443809a17.895619 17.895619 0 0 1 20.748191-7.850667c6.582857 2.072381 13.604571 3.145143 20.894476 3.145143 31.110095 0 57.344-20.089905 65.365333-47.518476l1.024-3.974096a17.700571 17.700571 0 0 1 17.359238-13.726476h60.830477z m-30.476191 109.494857c-46.055619 0-83.334095 36.766476-83.334095 82.16381 0 45.348571 37.327238 82.090667 83.358476 82.090666 46.055619 0 83.382857-36.742095 83.382857-82.090666 0-45.397333-37.327238-82.16381-83.382857-82.16381z" fill="#a3daff" p-id="119394" data-spm-anchor-id="a313x.7781069.0.i55" class="selected"></path></svg>