<?xml version="1.0" standalone="no"?><!DOCTYPE svg PUBLIC "-//W3C//DTD SVG 1.1//EN" "http://www.w3.org/Graphics/SVG/1.1/DTD/svg11.dtd"><svg t="1610605063785" class="icon" viewBox="0 0 1024 1024" version="1.1" xmlns="http://www.w3.org/2000/svg" p-id="133556" xmlns:xlink="http://www.w3.org/1999/xlink" width="48" height="48"><defs><style type="text/css"></style></defs><path d="M266.24 225.28h491.52l81.92 102.4H184.32z" fill="#304ECE" opacity=".3" p-id="133557"></path><path d="M225.28 307.2h573.44c45.056 0 81.92 36.864 81.92 81.92v368.64c0 45.056-36.864 81.92-81.92 81.92h-122.88c-40.96 0-61.44-81.92-163.84-81.92s-102.4 81.92-163.84 81.92h-122.88c-45.056 0-81.92-36.864-81.92-81.92V389.12c0-45.056 36.864-81.92 81.92-81.92z m122.88 327.68c45.056 0 81.92-36.864 81.92-81.92s-36.864-81.92-81.92-81.92-81.92 36.864-81.92 81.92 36.864 81.92 81.92 81.92z m327.68 0c45.056 0 81.92-36.864 81.92-81.92s-36.864-81.92-81.92-81.92-81.92 36.864-81.92 81.92 36.864 81.92 81.92 81.92z" fill="#304ECE" p-id="133558"></path></svg>