<?xml version="1.0" standalone="no"?><!DOCTYPE svg PUBLIC "-//W3C//DTD SVG 1.1//EN" "http://www.w3.org/Graphics/SVG/1.1/DTD/svg11.dtd"><svg t="1610601794275" class="icon" viewBox="0 0 1024 1024" version="1.1" xmlns="http://www.w3.org/2000/svg" p-id="28696" xmlns:xlink="http://www.w3.org/1999/xlink" width="48" height="48"><defs><style type="text/css"></style></defs><path d="M808.96 296.96h-148.48v-95.573333c0-25.6-22.186667-47.786667-49.493333-47.786667H413.013333c-27.306667 0-49.493333 22.186667-49.493333 47.786667v95.573333h-148.48c-54.613333 0-98.986667 42.666667-98.986667 95.573333v380.586667c0 52.906667 44.373333 95.573333 98.986667 95.573333h593.92c54.613333 0 98.986667-42.666667 98.986667-95.573333V390.826667c0-51.2-44.373333-93.866667-98.986667-93.866667z m-395.946667-95.573333h197.973334v95.573333H413.013333v-95.573333m296.96 428.373333h-148.48v143.36h-98.986666v-143.36h-148.48v-95.573333h148.48v-143.36h98.986666v143.36h148.48v95.573333" fill="#D25140" p-id="28697"></path></svg>