<?xml version="1.0" standalone="no"?><!DOCTYPE svg PUBLIC "-//W3C//DTD SVG 1.1//EN" "http://www.w3.org/Graphics/SVG/1.1/DTD/svg11.dtd"><svg t="1610603217083" class="icon" viewBox="0 0 1051 1024" version="1.1" xmlns="http://www.w3.org/2000/svg" p-id="57882" xmlns:xlink="http://www.w3.org/1999/xlink" width="49.265625" height="48"><defs><style type="text/css"></style></defs><path d="M1000.982358 412.254815L895.927544 318.577778V116.053333a67.508148 67.508148 0 0 0-135.016297 0v81.92L577.729025 34.133333a90.642963 90.642963 0 0 0-127.431111 0L27.044581 412.254815a89.884444 89.884444 0 0 0 0 127.431111l103.537777 94.056296v299.994074A89.884444 89.884444 0 0 0 220.466803 1024h585.576296A89.884444 89.884444 0 0 0 895.927544 933.736296v-299.994074l105.054814-94.056296a89.884444 89.884444 0 0 0 0-127.431111z m-329.955555 18.962963a45.131852 45.131852 0 1 1-45.131852 44.752592 44.752593 44.752593 0 0 1 45.131852-44.752592z m-292.788148 0a45.131852 45.131852 0 1 1-45.131852 44.752592 44.752593 44.752593 0 0 1 45.131852-44.752592z m400.877037 249.173333a269.653333 269.653333 0 0 1-530.962963 0 14.032593 14.032593 0 0 1 0-3.413333c0-8.722963 10.24-15.928889 22.755555-15.928889s21.997037 6.826667 22.755556 15.17037a225.28 225.28 0 0 0 441.457778 0 19.342222 19.342222 0 0 1 10.24-14.032592 33.374815 33.374815 0 0 1 12.515555-2.654815c12.515556 0 23.893333 4.93037 22.376297 18.204444z m0 0" fill="#7D8CF4" p-id="57883"></path></svg>