<?xml version="1.0" standalone="no"?><!DOCTYPE svg PUBLIC "-//W3C//DTD SVG 1.1//EN" "http://www.w3.org/Graphics/SVG/1.1/DTD/svg11.dtd"><svg t="1610603023323" class="icon" viewBox="0 0 1024 1024" version="1.1" xmlns="http://www.w3.org/2000/svg" p-id="48018" xmlns:xlink="http://www.w3.org/1999/xlink" width="48" height="48"><defs><style type="text/css"></style></defs><path d="M386.048 310.272L348.16 419.328h325.12l-35.84-109.568H386.048z" fill="#d7fff1" p-id="48019" data-spm-anchor-id="a313x.7781069.0.i37" class="selected"></path><path d="M811.008 371.712L768 253.44c-19.968-54.784-71.68-91.136-129.536-91.136H386.048C327.68 162.304 275.968 198.656 256 253.44l-43.008 118.272c-65.536 9.728-113.664 66.048-113.664 132.096v134.656c0 55.808 35.328 105.984 88.064 125.44v4.096c0 51.712 41.984 93.184 93.696 93.184H317.44c49.664 0 91.136-39.424 93.184-89.088h194.048c2.56 49.664 43.52 89.088 93.184 89.088h36.864c51.712 0 93.184-41.984 93.184-93.184v-1.024c56.832-16.896 96.256-69.12 96.256-128.512V503.808c0.512-66.048-48.128-122.368-113.152-132.096zM297.472 636.928c-31.744 0-57.344-25.6-57.344-57.344 0-31.744 25.6-57.344 57.344-57.344s57.344 25.6 57.344 57.344c0 31.744-25.6 57.344-57.344 57.344z m29.696-171.52c-10.24 0-20.48-5.12-26.112-13.824-6.144-8.704-7.168-19.456-3.584-29.696l56.32-147.456c4.608-12.288 16.384-20.48 29.696-20.48h257.024c13.312 0 25.6 8.192 29.696 20.992l53.76 147.456c6.144 16.384-2.56 34.816-19.456 40.96-3.584 1.024-7.168 2.048-10.752 2.048H327.168z m405.504 171.52c-31.744 0-57.344-25.6-57.344-57.344 0-31.744 25.6-57.344 57.344-57.344 31.744 0 57.344 25.6 57.344 57.344 0 31.744-25.6 57.344-57.344 57.344z" fill="#379392" p-id="48020" data-spm-anchor-id="a313x.7781069.0.i35" class=""></path></svg>