<?xml version="1.0" standalone="no"?><!DOCTYPE svg PUBLIC "-//W3C//DTD SVG 1.1//EN" "http://www.w3.org/Graphics/SVG/1.1/DTD/svg11.dtd"><svg t="1610601009986" class="icon" viewBox="0 0 1024 1024" version="1.1" xmlns="http://www.w3.org/2000/svg" p-id="5939" xmlns:xlink="http://www.w3.org/1999/xlink" width="48" height="48"><defs><style type="text/css"></style></defs><path d="M683.7 533.2l238.4-235c24.4-24.1 23.6-63.9-2.1-86.6-75.9-67-175.7-107.5-285-107-237.9 0.9-428.4 194.3-426 432.2 2.4 234.3 193 423.4 427.8 423.4 108.2 0 207-40.2 282.4-106.4 25.4-22.3 26.3-61.6 2.2-85.4L683.7 533.2z" fill="#FFD2C2" p-id="5940"></path><path d="M531.7 959.3c-93.6 0-183.2-28.6-259.2-82.7-15.5-11-19.1-32.5-8.1-48 11-15.4 32.5-19.1 48-8.1 64.2 45.7 140 69.9 219.2 69.9 89.8 0 174.9-31.1 242.9-88.1L507.4 535.1c-13.4-13.4-13.4-35.2 0-48.7l266.1-266.1c-67.8-56.5-152.5-87.2-241.8-87.2-208.8 0-378.7 169.8-378.7 378.6 0 35.6 4.9 70.9 14.7 104.9 5.2 18.3-5.3 37.3-23.6 42.6-18.3 5.3-37.3-5.3-42.6-23.6-11.5-40.1-17.3-81.8-17.3-123.9C84.2 265 284.9 64.2 531.7 64.2c119.2 0 231.4 46.4 315.9 130.5 6.5 6.5 10.1 15.2 10.1 24.3 0 9.1-3.6 17.9-10.1 24.4L580.4 510.7 848.6 779c13.4 13.4 13.4 35.2 0 48.6-84.5 84.9-197.1 131.7-316.9 131.7zM216.4 813c-9.8 0-19.5-4.1-26.3-12.2-13.3-15.7-25.7-32.5-36.5-49.8-10.2-16.1-5.4-37.3 10.7-47.5 16-10.2 37.3-5.4 47.5 10.7 9.2 14.6 19.6 28.7 30.9 42 12.3 14.5 10.5 36.2-4 48.5-6.6 5.6-14.5 8.3-22.3 8.3z" fill="#F47E4B" p-id="5941"></path><path d="M445.6 322.4m-51.6 0a51.6 51.6 0 1 0 103.2 0 51.6 51.6 0 1 0-103.2 0Z" fill="#F47E4B" p-id="5942"></path><path d="M911.5 512m-51.6 0a51.6 51.6 0 1 0 103.2 0 51.6 51.6 0 1 0-103.2 0Z" fill="#F47E4B" p-id="5943"></path><path d="M734.1 512m-51.6 0a51.6 51.6 0 1 0 103.2 0 51.6 51.6 0 1 0-103.2 0Z" fill="#F47E4B" p-id="5944"></path></svg>